<?xml version="1.0" encoding="UTF-8" standalone="no"?><!DOCTYPE svg PUBLIC "-//W3C//DTD SVG 1.1//EN" "http://www.w3.org/Graphics/SVG/1.1/DTD/svg11.dtd"><svg width="100%" height="100%" viewBox="0 0 695 695" version="1.1" xmlns="http://www.w3.org/2000/svg" xmlns:xlink="http://www.w3.org/1999/xlink" xml:space="preserve" xmlns:serif="http://www.serif.com/" style="fill-rule:evenodd;clip-rule:evenodd;stroke-linejoin:round;stroke-miterlimit:2;"><g><g><g><path d="M681.046,291.858l-134.792,-86.863c-1.054,-0.671 -2.217,-0.925 -3.35,-1.3l0,-29.958c0,-8 -6.475,-14.479 -14.479,-14.479l-53.758,0l-112.292,-70.183c-4.692,-2.942 -10.658,-2.942 -15.354,0l-112.292,70.183l-68.237,0c-8,0 -14.479,6.475 -14.479,14.479l0,29.95c-1.133,0.375 -2.3,0.633 -3.35,1.308l-134.792,86.863c-4.129,2.671 -6.633,7.254 -6.633,12.171l0,376.412c0,8 6.475,14.479 14.479,14.479l651.483,0c8,0 14.479,-6.475 14.479,-14.479l0,-376.408c0,-4.921 -2.504,-9.5 -6.633,-12.175Zm-326.346,-173.429l65.337,40.829l-130.675,0l65.338,-40.829Zm-173.729,69.783l332.979,0l0,325.742c0,0.042 0.025,0.075 0.025,0.121l-48.975,29.738l-117.85,-64.279c-4.396,-2.375 -9.742,-2.363 -14.108,0.142l-107.542,61.454l-44.55,-27.05c0,-0.042 0.025,-0.075 0.025,-0.117l-0.004,-325.75Zm-144.775,123.708l115.817,-74.625l0,259.217l-115.817,-70.325l0,-114.267Zm0,148.129l160.571,97.487l-160.571,91.758l0,-189.246Zm29.175,205.921l275.021,-157.146l288.104,157.146l-563.125,0Zm593.354,-16.496l-164.35,-89.642l164.35,-99.788l0,189.429Zm0,-223.288l-115.821,70.321l0,-259.212l115.821,74.629l0,114.262Z" style="fill:#402307;fill-rule:nonzero;"/><path d="M238.879,332.988l173.729,0c8,0 14.479,-6.475 14.479,-14.479l0,-86.863c0,-8 -6.475,-14.479 -14.479,-14.479l-173.729,0c-8,0 -14.479,6.475 -14.479,14.479l0,86.863c0,8.004 6.479,14.479 14.479,14.479Zm14.475,-86.867l144.775,0l0,57.908l-144.775,0l0,-57.908Z" style="fill:#402307;fill-rule:nonzero;"/><rect x="224.4" y="361.942" width="231.638" height="28.954" style="fill:#402307;"/><rect x="224.4" y="419.854" width="231.638" height="28.954" style="fill:#402307;"/><path d="M615.292,173.738c3.704,0 7.408,-1.412 10.237,-4.242l51.179,-51.179c5.654,-5.654 5.654,-14.817 0,-20.471c-5.654,-5.658 -14.817,-5.654 -20.471,0l-51.179,51.179c-5.654,5.654 -5.654,14.817 0,20.471c2.825,2.829 6.529,4.242 10.233,4.242Z" style="fill:#402307;fill-rule:nonzero;"/><path d="M69.392,169.496c2.829,2.829 6.533,4.242 10.238,4.242c3.704,0 7.408,-1.412 10.237,-4.242c5.654,-5.654 5.654,-14.817 0,-20.471l-51.183,-51.179c-5.654,-5.654 -14.817,-5.654 -20.471,0c-5.654,5.654 -5.654,14.817 0,20.471l51.179,51.179Z" style="fill:#402307;fill-rule:nonzero;"/><path d="M494.1,100.317c1.754,0.708 3.579,1.029 5.371,1.029c5.742,0 11.183,-3.438 13.446,-9.104l28.954,-72.388c2.971,-7.421 -0.65,-15.85 -8.071,-18.817c-7.35,-2.954 -15.85,0.621 -18.817,8.071l-28.954,72.388c-2.971,7.425 0.646,15.854 8.071,18.821Z" style="fill:#402307;fill-rule:nonzero;"/><path d="M196.479,92.246c2.262,5.671 7.704,9.104 13.446,9.104c1.796,0 3.621,-0.325 5.371,-1.033c7.421,-2.971 11.042,-11.396 8.071,-18.817l-28.954,-72.387c-2.971,-7.45 -11.45,-11.029 -18.817,-8.071c-7.421,2.971 -11.042,11.396 -8.071,18.817l28.954,72.388Z" style="fill:#402307;fill-rule:nonzero;"/></g></g></g></svg>