<?xml version="1.0" encoding="UTF-8" standalone="no"?><!DOCTYPE svg PUBLIC "-//W3C//DTD SVG 1.1//EN" "http://www.w3.org/Graphics/SVG/1.1/DTD/svg11.dtd"><svg width="100%" height="100%" viewBox="0 0 2481 1749" version="1.1" xmlns="http://www.w3.org/2000/svg" xmlns:xlink="http://www.w3.org/1999/xlink" xml:space="preserve" xmlns:serif="http://www.serif.com/" style="fill-rule:evenodd;clip-rule:evenodd;stroke-linecap:round;stroke-linejoin:round;stroke-miterlimit:1.5;"><g><path d="M833.446,520.424l407.532,244.276c2.64,1.582 3.499,5.01 1.916,7.65l-5.734,9.566c-1.582,2.64 -5.01,3.499 -7.65,1.916l-407.532,-244.276c-2.64,-1.582 -3.499,-5.01 -1.916,-7.65l5.734,-9.566c1.582,-2.64 5.01,-3.499 7.65,-1.916Z" style="fill:#dfdcd8;stroke:#402307;stroke-width:8.33px;"/><path d="M805.231,516.515c5.855,-9.768 18.538,-12.945 28.306,-7.09c9.768,5.855 12.945,18.538 7.09,28.306c-5.855,9.768 -18.538,12.945 -28.306,7.09c-9.768,-5.855 -12.945,-18.538 -7.09,-28.306Z" style="fill:#dfdcd8;stroke:#402307;stroke-width:8.33px;"/><path d="M1339.011,870.306l0,242.892c0,67.028 -54.418,121.446 -121.446,121.446l-481.47,0c-67.028,0 -121.446,-54.418 -121.446,-121.446l0,-242.892c0,-67.028 54.418,-121.446 121.446,-121.446l481.47,0c67.028,0 121.446,54.418 121.446,121.446Z" style="fill:#b98a4f;stroke:#402307;stroke-width:8.33px;"/><g transform="matrix(703.634359,0,0,703.634359,218.832208,1238.024105)"><path d="M0.353,-0l-0.015,-0.178c-0.002,-0.026 -0.006,-0.047 -0.013,-0.062c-0.006,-0.016 -0.016,-0.027 -0.028,-0.035c-0.012,-0.007 -0.029,-0.011 -0.049,-0.011l-0.011,0l0,-0.125l0.013,0c0.03,0 0.052,-0.008 0.066,-0.024c0.014,-0.016 0.021,-0.035 0.021,-0.054c0,-0.024 -0.008,-0.043 -0.025,-0.056c-0.016,-0.014 -0.037,-0.021 -0.061,-0.021l-0.013,0l0,-0.133l0.022,0c0.045,0 0.082,0.008 0.113,0.025c0.031,0.017 0.055,0.039 0.071,0.069c0.016,0.029 0.025,0.062 0.025,0.101c0,0.034 -0.006,0.064 -0.019,0.09c-0.012,0.026 -0.029,0.047 -0.049,0.064c0.021,0.013 0.037,0.033 0.047,0.059c0.01,0.026 0.017,0.051 0.019,0.075l0.017,0.217l-0.13,-0Zm-0.311,-0l0,-0.7l0.141,0l0,0.7l-0.141,-0Z" style="fill:#402307;fill-rule:nonzero;"/></g><g transform="matrix(703.634359,0,0,703.634359,574.167559,1238.024105)"></g><g transform="matrix(703.634359,0,0,703.634359,736.003462,1238.024105)"></g><g transform="matrix(703.634359,0,0,703.634359,897.839364,1238.024105)"></g><g transform="matrix(703.634359,0,0,703.634359,1059.675267,1238.024105)"></g><g transform="matrix(703.634359,0,0,703.634359,1221.51117,1238.024105)"></g><g transform="matrix(703.634359,0,0,703.634359,1383.347072,1238.024105)"><path d="M0.237,-0l0,-0.141c0.001,0 0.005,-0.001 0.011,-0.002c0.006,-0.001 0.013,-0.004 0.02,-0.008c0.007,-0.004 0.013,-0.01 0.018,-0.017c0.005,-0.007 0.007,-0.017 0.007,-0.029l0,-0.306c0,-0.001 -0.001,-0.005 -0.002,-0.01c-0.001,-0.006 -0.004,-0.012 -0.008,-0.019c-0.004,-0.007 -0.01,-0.013 -0.017,-0.019c-0.007,-0.005 -0.017,-0.008 -0.029,-0.008l0,-0.141c0.036,0 0.066,0.007 0.091,0.022c0.025,0.014 0.045,0.032 0.06,0.053c0.015,0.021 0.027,0.043 0.034,0.065c0.007,0.022 0.011,0.041 0.011,0.057l0,0.306c0,0.037 -0.007,0.068 -0.022,0.093c-0.015,0.025 -0.033,0.046 -0.054,0.061c-0.021,0.015 -0.043,0.026 -0.065,0.033c-0.022,0.007 -0.041,0.01 -0.056,0.01Zm-0.195,-0l-0,-0.7l0.141,0l0,0.7l-0.141,-0Z" style="fill:#402307;fill-rule:nonzero;"/></g><g transform="matrix(703.634359,0,0,703.634359,1715.46249,1238.024105)"><rect x="0.042" y="-0.7" width="0.141" height="0.7" style="fill:#402307;fill-rule:nonzero;"/></g><g transform="matrix(703.634359,0,0,703.634359,1873.780221,1238.024105)"><path d="M0.302,0.005l0,-0.142c0.009,0 0.017,-0.002 0.025,-0.006c0.008,-0.004 0.015,-0.009 0.021,-0.015c0.006,-0.006 0.011,-0.014 0.015,-0.022c0.004,-0.009 0.006,-0.018 0.006,-0.029l0,-0.279c0,-0.011 -0.002,-0.021 -0.005,-0.03c-0.003,-0.009 -0.008,-0.017 -0.013,-0.024c-0.006,-0.007 -0.013,-0.012 -0.021,-0.016c-0.008,-0.004 -0.017,-0.006 -0.027,-0.006l0,-0.141c0.028,0 0.055,0.005 0.08,0.016c0.025,0.011 0.047,0.025 0.066,0.044c0.019,0.018 0.034,0.04 0.045,0.064c0.011,0.024 0.017,0.05 0.017,0.078l0,0.3c0,0.029 -0.005,0.057 -0.015,0.082c-0.01,0.025 -0.023,0.048 -0.041,0.067c-0.018,0.019 -0.04,0.034 -0.066,0.044c-0.026,0.011 -0.054,0.016 -0.086,0.016Zm-0.056,-0c-0.028,0 -0.054,-0.005 -0.079,-0.017c-0.025,-0.011 -0.046,-0.026 -0.066,-0.045c-0.019,-0.019 -0.034,-0.042 -0.045,-0.067c-0.011,-0.025 -0.017,-0.052 -0.017,-0.08l0,-0.3c0,-0.027 0.006,-0.053 0.017,-0.078c0.011,-0.024 0.026,-0.046 0.045,-0.065c0.019,-0.019 0.041,-0.033 0.066,-0.043c0.025,-0.01 0.051,-0.015 0.079,-0.015l0,0.141c-0.01,0 -0.019,0.002 -0.027,0.006c-0.008,0.004 -0.015,0.009 -0.02,0.016c-0.006,0.007 -0.01,0.015 -0.014,0.024c-0.003,0.009 -0.005,0.019 -0.005,0.03l0,0.279c-0,0.011 0.002,0.02 0.006,0.029c0.004,0.009 0.008,0.017 0.015,0.023c0.006,0.006 0.013,0.011 0.02,0.014c0.008,0.003 0.016,0.005 0.024,0.005l0,0.142Z" style="fill:#402307;fill-rule:nonzero;"/></g><g transform="matrix(703.634359,0,0,703.634359,2260.075484,1238.024105)"></g><circle cx="732.892" cy="1136.236" r="57.496" style="fill:#dfdcd8;stroke:#402307;stroke-width:8.33px;"/><circle cx="1223.397" cy="1136.236" r="57.496" style="fill:#dfdcd8;stroke:#402307;stroke-width:8.33px;"/><path d="M1280.893,861.78l0,116.385c0,32.117 -26.075,58.192 -58.192,58.192l-489.111,0c-32.117,0 -58.192,-26.075 -58.192,-58.192l0,-116.385c0,-32.117 26.075,-58.192 58.192,-58.192l489.111,0c32.117,0 58.192,26.075 58.192,58.192Z" style="fill:#4b3a26;stroke:#402307;stroke-width:8.33px;"/><path d="M1791.947,538.694l22.004,67.723l71.208,0l-57.608,41.855l22.004,67.723l-57.608,-41.855l-57.608,41.855l22.004,-67.723l-57.608,-41.855l71.208,-0l22.004,-67.723Z" style="fill:#fc0;stroke:#402307;stroke-width:8.33px;"/></g></svg>