<?xml version="1.0" encoding="UTF-8" standalone="no"?><!DOCTYPE svg PUBLIC "-//W3C//DTD SVG 1.1//EN" "http://www.w3.org/Graphics/SVG/1.1/DTD/svg11.dtd"><svg width="100%" height="100%" viewBox="0 0 2481 1749" version="1.1" xmlns="http://www.w3.org/2000/svg" xmlns:xlink="http://www.w3.org/1999/xlink" xml:space="preserve" xmlns:serif="http://www.serif.com/" style="fill-rule:evenodd;clip-rule:evenodd;stroke-linecap:round;stroke-linejoin:round;stroke-miterlimit:1.5;"><g><g><path d="M834.537,482.623l406.179,270.164c2.778,1.848 3.752,5.722 2.173,8.645l-5.722,10.594c-1.579,2.923 -5.117,3.797 -7.895,1.949l-406.179,-270.164c-2.778,-1.848 -3.752,-5.722 -2.173,-8.645l5.722,-10.594c1.579,-2.923 5.117,-3.797 7.895,-1.949Z" style="fill:#dfdcd8;stroke:#fff4de;stroke-width:8.33px;"/><path d="M806.119,478.121c5.843,-10.817 18.501,-14.335 28.248,-7.851c9.748,6.484 12.918,20.529 7.075,31.346c-5.843,10.817 -18.501,14.335 -28.248,7.851c-9.748,-6.484 -12.918,-20.529 -7.075,-31.346Z" style="fill:#dfdcd8;stroke:#fff4de;stroke-width:8.33px;"/><path d="M1338.809,869.908l0,268.977c0,74.226 -60.262,134.488 -134.488,134.488l-453.906,0c-74.226,0 -134.488,-60.262 -134.488,-134.488l0,-268.977c0,-74.226 60.262,-134.488 134.488,-134.488l453.906,0c74.226,0 134.488,60.262 134.488,134.488Z" style="fill:#b98a4f;stroke:#fff4de;stroke-width:8.33px;"/><ellipse cx="733.928" cy="1164.396" rx="57.378" ry="63.67" style="fill:#dfdcd8;stroke:#fff4de;stroke-width:8.33px;"/><ellipse cx="1223.431" cy="1164.396" rx="57.378" ry="63.67" style="fill:#dfdcd8;stroke:#fff4de;stroke-width:8.33px;"/><path d="M1280.81,860.466l0,128.884c0,35.566 -28.875,64.442 -64.442,64.442l-475.377,0c-35.566,0 -64.442,-28.875 -64.442,-64.442l0,-128.884c0,-35.566 28.875,-64.442 64.442,-64.442l475.377,0c35.566,0 64.442,28.875 64.442,64.442Z" style="fill:#4b3a26;stroke:#fff4de;stroke-width:8.33px;"/></g><g transform="matrix(0.901178,0,0,1,-103.222897,-0)"><g transform="matrix(779.200167,0,0,779.200167,359.684498,1277.116262)"><path d="M0.353,-0l-0.015,-0.178c-0.002,-0.026 -0.006,-0.047 -0.013,-0.062c-0.006,-0.016 -0.016,-0.027 -0.028,-0.035c-0.012,-0.007 -0.029,-0.011 -0.049,-0.011l-0.011,0l0,-0.125l0.013,0c0.03,0 0.052,-0.008 0.066,-0.024c0.014,-0.016 0.021,-0.035 0.021,-0.054c0,-0.024 -0.008,-0.043 -0.025,-0.056c-0.016,-0.014 -0.037,-0.021 -0.061,-0.021l-0.013,0l0,-0.133l0.022,0c0.045,0 0.082,0.008 0.113,0.025c0.031,0.017 0.055,0.039 0.071,0.069c0.016,0.029 0.025,0.062 0.025,0.101c0,0.034 -0.006,0.064 -0.019,0.09c-0.012,0.026 -0.029,0.047 -0.049,0.064c0.021,0.013 0.037,0.033 0.047,0.059c0.01,0.026 0.017,0.051 0.019,0.075l0.017,0.217l-0.13,-0Zm-0.311,-0l0,-0.7l0.141,0l0,0.7l-0.141,-0Z" style="fill:#fff4de;fill-rule:nonzero;"/></g><g transform="matrix(779.200167,0,0,779.200167,753.180582,1277.116262)"></g><g transform="matrix(779.200167,0,0,779.200167,932.396621,1277.116262)"></g><g transform="matrix(779.200167,0,0,779.200167,1111.612659,1277.116262)"></g><g transform="matrix(779.200167,0,0,779.200167,1290.828698,1277.116262)"></g><g transform="matrix(779.200167,0,0,779.200167,1470.044736,1277.116262)"></g><g transform="matrix(779.200167,0,0,779.200167,1649.260775,1277.116262)"><path d="M0.237,-0l0,-0.141c0.001,0 0.005,-0.001 0.011,-0.002c0.006,-0.001 0.013,-0.004 0.02,-0.008c0.007,-0.004 0.013,-0.01 0.018,-0.017c0.005,-0.007 0.007,-0.017 0.007,-0.029l0,-0.306c0,-0.001 -0.001,-0.005 -0.002,-0.01c-0.001,-0.006 -0.004,-0.012 -0.008,-0.019c-0.004,-0.007 -0.01,-0.013 -0.017,-0.019c-0.007,-0.005 -0.017,-0.008 -0.029,-0.008l0,-0.141c0.036,0 0.066,0.007 0.091,0.022c0.025,0.014 0.045,0.032 0.06,0.053c0.015,0.021 0.027,0.043 0.034,0.065c0.007,0.022 0.011,0.041 0.011,0.057l0,0.306c0,0.037 -0.007,0.068 -0.022,0.093c-0.015,0.025 -0.033,0.046 -0.054,0.061c-0.021,0.015 -0.043,0.026 -0.065,0.033c-0.022,0.007 -0.041,0.01 -0.056,0.01Zm-0.195,-0l-0,-0.7l0.141,0l0,0.7l-0.141,-0Z" style="fill:#fff4de;fill-rule:nonzero;"/></g><g transform="matrix(779.200167,0,0,779.200167,2017.043254,1277.116262)"><rect x="0.042" y="-0.7" width="0.141" height="0.7" style="fill:#fff4de;fill-rule:nonzero;"/></g><g transform="matrix(779.200167,0,0,779.200167,2192.363291,1277.116262)"><path d="M0.302,0.005l0,-0.142c0.009,0 0.017,-0.002 0.025,-0.006c0.008,-0.004 0.015,-0.009 0.021,-0.015c0.006,-0.006 0.011,-0.014 0.015,-0.022c0.004,-0.009 0.006,-0.018 0.006,-0.029l0,-0.279c0,-0.011 -0.002,-0.021 -0.005,-0.03c-0.003,-0.009 -0.008,-0.017 -0.013,-0.024c-0.006,-0.007 -0.013,-0.012 -0.021,-0.016c-0.008,-0.004 -0.017,-0.006 -0.027,-0.006l0,-0.141c0.028,0 0.055,0.005 0.08,0.016c0.025,0.011 0.047,0.025 0.066,0.044c0.019,0.018 0.034,0.04 0.045,0.064c0.011,0.024 0.017,0.05 0.017,0.078l0,0.3c0,0.029 -0.005,0.057 -0.015,0.082c-0.01,0.025 -0.023,0.048 -0.041,0.067c-0.018,0.019 -0.04,0.034 -0.066,0.044c-0.026,0.011 -0.054,0.016 -0.086,0.016Zm-0.056,-0c-0.028,0 -0.054,-0.005 -0.079,-0.017c-0.025,-0.011 -0.046,-0.026 -0.066,-0.045c-0.019,-0.019 -0.034,-0.042 -0.045,-0.067c-0.011,-0.025 -0.017,-0.052 -0.017,-0.08l0,-0.3c0,-0.027 0.006,-0.053 0.017,-0.078c0.011,-0.024 0.026,-0.046 0.045,-0.065c0.019,-0.019 0.041,-0.033 0.066,-0.043c0.025,-0.01 0.051,-0.015 0.079,-0.015l0,0.141c-0.01,0 -0.019,0.002 -0.027,0.006c-0.008,0.004 -0.015,0.009 -0.02,0.016c-0.006,0.007 -0.01,0.015 -0.014,0.024c-0.003,0.009 -0.005,0.019 -0.005,0.03l0,0.279c-0,0.011 0.002,0.02 0.006,0.029c0.004,0.009 0.008,0.017 0.015,0.023c0.006,0.006 0.013,0.011 0.02,0.014c0.008,0.003 0.016,0.005 0.024,0.005l0,0.142Z" style="fill:#fff4de;fill-rule:nonzero;"/></g><g transform="matrix(779.200167,0,0,779.200167,2620.144183,1277.116262)"></g></g><path d="M1790.821,502.683l21.959,74.996l71.062,0l-57.491,46.35l21.959,74.996l-57.491,-46.35l-57.491,46.35l21.959,-74.996l-57.491,-46.35l71.062,-0l21.959,-74.996Z" style="fill:#fc0;stroke:#fff4de;stroke-width:8.33px;"/></g></svg>